<svg width="32" height="32" viewBox="0 0 32 32" fill="none" xmlns="http://www.w3.org/2000/svg">
<g clip-path="url(#clip0_1_282)">
<path d="M16 2.66675C8.64002 2.66675 2.66669 8.64008 2.66669 16.0001C2.66669 23.3601 8.64002 29.3334 16 29.3334C23.36 29.3334 29.3334 23.3601 29.3334 16.0001C29.3334 8.64008 23.36 2.66675 16 2.66675ZM21.3334 17.3334H17.3334V21.3334C17.3334 22.0667 16.7334 22.6667 16 22.6667C15.2667 22.6667 14.6667 22.0667 14.6667 21.3334V17.3334H10.6667C9.93335 17.3334 9.33335 16.7334 9.33335 16.0001C9.33335 15.2667 9.93335 14.6667 10.6667 14.6667H14.6667V10.6667C14.6667 9.93342 15.2667 9.33342 16 9.33342C16.7334 9.33342 17.3334 9.93342 17.3334 10.6667V14.6667H21.3334C22.0667 14.6667 22.6667 15.2667 22.6667 16.0001C22.6667 16.7334 22.0667 17.3334 21.3334 17.3334Z" fill="#0096C8"/>
</g>
<defs>
<clipPath id="clip0_1_282">
<rect width="32" height="32" fill="white"/>
</clipPath>
</defs>
</svg>
