<svg width="32" height="32" viewBox="0 0 32 32" fill="none" xmlns="http://www.w3.org/2000/svg">
<g clip-path="url(#clip0_1_1020)">
<path d="M22.9466 11.9998L17.1066 3.25312C16.8533 2.87978 16.4266 2.69312 16 2.69312C15.5733 2.69312 15.1466 2.87978 14.8933 3.26645L9.05331 11.9998H2.66665C1.93331 11.9998 1.33331 12.5998 1.33331 13.3331C1.33331 13.4531 1.34665 13.5731 1.38665 13.6931L4.77331 26.0531C5.07998 27.1731 6.10665 27.9998 7.33331 27.9998H24.6666C25.8933 27.9998 26.92 27.1731 27.24 26.0531L30.6266 13.6931L30.6666 13.3331C30.6666 12.5998 30.0666 11.9998 29.3333 11.9998H22.9466ZM12 11.9998L16 6.13311L20 11.9998H12ZM16 22.6664C14.5333 22.6664 13.3333 21.4664 13.3333 19.9998C13.3333 18.5331 14.5333 17.3331 16 17.3331C17.4666 17.3331 18.6666 18.5331 18.6666 19.9998C18.6666 21.4664 17.4666 22.6664 16 22.6664Z" fill="#C0504D"/>
</g>
<defs>
<clipPath id="clip0_1_1020">
<rect width="32" height="32" fill="white"/>
</clipPath>
</defs>
</svg>
