<svg width="16" height="16" viewBox="0 0 16 16" fill="none" xmlns="http://www.w3.org/2000/svg">
<g clip-path="url(#clip0_1_957)">
<path d="M8.00002 2.66666C4.66669 2.66666 1.82002 4.73999 0.666687 7.66666C1.82002 10.5933 4.66669 12.6667 8.00002 12.6667C11.3334 12.6667 14.18 10.5933 15.3334 7.66666C14.18 4.73999 11.3334 2.66666 8.00002 2.66666ZM8.00002 11C6.16002 11 4.66669 9.50666 4.66669 7.66666C4.66669 5.82666 6.16002 4.33332 8.00002 4.33332C9.84002 4.33332 11.3334 5.82666 11.3334 7.66666C11.3334 9.50666 9.84002 11 8.00002 11ZM8.00002 5.66666C6.89335 5.66666 6.00002 6.55999 6.00002 7.66666C6.00002 8.77332 6.89335 9.66666 8.00002 9.66666C9.10669 9.66666 10 8.77332 10 7.66666C10 6.55999 9.10669 5.66666 8.00002 5.66666Z" fill="#6D747A"/>
</g>
<defs>
<clipPath id="clip0_1_957">
<rect width="16" height="16" fill="white"/>
</clipPath>
</defs>
</svg>
